<svg width="52" height="45" viewBox="0 0 52 45" fill="none" xmlns="http://www.w3.org/2000/svg">
<path d="M18.875 17.4166H33.125" stroke="#BFBFBF" stroke-width="1.5" stroke-linecap="round" stroke-linejoin="round"/>
<path d="M20.9333 6.63416H19.6667C19.2312 6.63416 18.875 6.99041 18.875 7.42582V14.25C18.875 14.6854 19.2312 15.0417 19.6667 15.0417H20.9333C21.3687 15.0417 21.725 14.6854 21.725 14.25V7.42582C21.725 6.99041 21.3687 6.63416 20.9333 6.63416Z" stroke="#BFBFBF" stroke-width="1.5" stroke-linecap="round" stroke-linejoin="round"/>
<path d="M26.6333 4.10876H25.3667C24.9313 4.10876 24.575 4.46501 24.575 4.90043V14.25C24.575 14.6854 24.9313 15.0417 25.3667 15.0417H26.6333C27.0687 15.0417 27.425 14.6854 27.425 14.25V4.90043C27.425 4.46501 27.0687 4.10876 26.6333 4.10876Z" stroke="#BFBFBF" stroke-width="1.5" stroke-linecap="round" stroke-linejoin="round"/>
<path d="M32.3333 1.58337H31.0667C30.6313 1.58337 30.275 1.93962 30.275 2.37504V14.25C30.275 14.6855 30.6313 15.0417 31.0667 15.0417H32.3333C32.7688 15.0417 33.125 14.6855 33.125 14.25V2.37504C33.125 1.93962 32.7688 1.58337 32.3333 1.58337Z" stroke="#BFBFBF" stroke-width="1.5" stroke-linecap="round" stroke-linejoin="round"/>
<path d="M6.396 36.624H1.968V35.784H6.396V36.624ZM7.98 39H6.972L3.996 31.008H4.392L1.416 39H0.444L3.696 30.42H4.728L7.98 39ZM14.5818 39H13.6578V35.604C13.6578 34.98 13.5258 34.512 13.2618 34.2C13.0058 33.88 12.6578 33.72 12.2178 33.72C11.8978 33.72 11.5978 33.812 11.3178 33.996C11.0378 34.172 10.8098 34.456 10.6338 34.848C10.4578 35.232 10.3698 35.732 10.3698 36.348V39H9.44578V33.096H10.3578V34.896H10.2018C10.2898 34.408 10.4418 34.02 10.6578 33.732C10.8818 33.436 11.1458 33.224 11.4498 33.096C11.7538 32.968 12.0698 32.904 12.3978 32.904C13.0778 32.904 13.6098 33.128 13.9938 33.576C14.3858 34.016 14.5818 34.656 14.5818 35.496V39ZM21.0962 39H20.2202V37.848L20.2082 37.512V35.316C20.2082 34.82 20.0562 34.428 19.7522 34.14C19.4562 33.844 19.0482 33.696 18.5282 33.696C17.8482 33.696 17.2722 33.98 16.8002 34.548L16.2002 33.96C16.8722 33.256 17.6682 32.904 18.5882 32.904C19.0922 32.904 19.5322 33.004 19.9082 33.204C20.2842 33.396 20.5762 33.672 20.7842 34.032C20.9922 34.384 21.0962 34.8 21.0962 35.28V39ZM18.1322 39.192C17.7162 39.192 17.3482 39.112 17.0282 38.952C16.7082 38.792 16.4562 38.572 16.2722 38.292C16.0962 38.004 16.0082 37.68 16.0082 37.32C16.0082 36.72 16.2362 36.244 16.6922 35.892C17.1562 35.54 17.7762 35.364 18.5522 35.364H20.3162V36.108H18.6602C18.1242 36.108 17.7082 36.212 17.4122 36.42C17.1162 36.62 16.9682 36.908 16.9682 37.284C16.9682 37.628 17.0842 37.904 17.3162 38.112C17.5562 38.32 17.8722 38.424 18.2642 38.424C18.6482 38.424 18.9922 38.344 19.2962 38.184C19.6002 38.016 19.8442 37.788 20.0282 37.5C20.2122 37.204 20.3162 36.868 20.3402 36.492L20.6882 36.696C20.6882 37.176 20.5762 37.604 20.3522 37.98C20.1362 38.356 19.8362 38.652 19.4522 38.868C19.0682 39.084 18.6282 39.192 18.1322 39.192ZM23.9518 39H23.0278V30.36H23.9518V39ZM30.1087 33.096H31.0447L28.2367 40.044C28.0767 40.444 27.8727 40.756 27.6247 40.98C27.3847 41.212 27.0047 41.328 26.4847 41.328H25.7887V40.536H26.4847C26.7567 40.536 26.9687 40.472 27.1207 40.344C27.2727 40.216 27.3927 40.028 27.4807 39.78L27.7567 39.024L25.3567 33.096H26.3407L28.3927 38.496H28.0447L30.1087 33.096ZM35.5334 39H34.2134C33.7974 39 33.4814 38.888 33.2654 38.664C33.0494 38.432 32.9414 38.104 32.9414 37.68V31.368H33.8654V37.596C33.8654 37.788 33.9134 37.94 34.0094 38.052C34.1054 38.156 34.2494 38.208 34.4414 38.208H35.5334V39ZM35.4494 33.888H31.8134V33.096H35.4494V33.888ZM37.9323 39H37.0083V33.096H37.9323V39ZM38.1123 30.864C38.1123 31.056 38.0483 31.216 37.9203 31.344C37.8003 31.464 37.6483 31.524 37.4643 31.524C37.2803 31.524 37.1243 31.464 36.9963 31.344C36.8763 31.216 36.8163 31.056 36.8163 30.864C36.8163 30.672 36.8763 30.516 36.9963 30.396C37.1243 30.268 37.2803 30.204 37.4643 30.204C37.6483 30.204 37.8003 30.268 37.9203 30.396C38.0483 30.516 38.1123 30.672 38.1123 30.864ZM44.2571 37.428L44.9051 38.04C44.6331 38.408 44.2971 38.692 43.8971 38.892C43.4971 39.092 43.0491 39.192 42.5531 39.192C41.9771 39.192 41.4651 39.06 41.0171 38.796C40.5771 38.524 40.2291 38.152 39.9731 37.68C39.7251 37.208 39.6011 36.664 39.6011 36.048C39.6011 35.432 39.7291 34.888 39.9851 34.416C40.2411 33.944 40.5931 33.576 41.0411 33.312C41.4891 33.04 42.0011 32.904 42.5771 32.904C43.5771 32.904 44.3571 33.288 44.9171 34.056L44.2571 34.668C44.0891 34.364 43.8571 34.128 43.5611 33.96C43.2651 33.792 42.9291 33.708 42.5531 33.708C41.9691 33.708 41.4931 33.92 41.1251 34.344C40.7571 34.768 40.5731 35.336 40.5731 36.048C40.5731 36.752 40.7571 37.32 41.1251 37.752C41.5011 38.176 41.9891 38.388 42.5891 38.388C42.9491 38.388 43.2691 38.308 43.5491 38.148C43.8291 37.98 44.0651 37.74 44.2571 37.428ZM45.7107 38.088L46.3107 37.452C46.5667 37.748 46.8587 37.984 47.1867 38.16C47.5227 38.328 47.8987 38.412 48.3147 38.412C48.7467 38.412 49.0947 38.312 49.3587 38.112C49.6307 37.912 49.7667 37.652 49.7667 37.332C49.7667 37.068 49.6507 36.86 49.4187 36.708C49.1947 36.548 48.8067 36.428 48.2547 36.348C47.4147 36.212 46.8227 36.016 46.4787 35.76C46.1427 35.504 45.9747 35.148 45.9747 34.692C45.9747 34.332 46.0707 34.02 46.2627 33.756C46.4547 33.484 46.7227 33.276 47.0667 33.132C47.4107 32.98 47.8067 32.904 48.2547 32.904C48.7507 32.904 49.1947 33 49.5867 33.192C49.9787 33.384 50.3267 33.656 50.6307 34.008L50.0307 34.644C49.8067 34.348 49.5467 34.116 49.2507 33.948C48.9627 33.772 48.6307 33.684 48.2547 33.684C47.8627 33.684 47.5427 33.776 47.2947 33.96C47.0467 34.136 46.9227 34.364 46.9227 34.644C46.9227 34.796 46.9667 34.928 47.0547 35.04C47.1427 35.144 47.2907 35.232 47.4987 35.304C47.7067 35.376 47.9867 35.44 48.3387 35.496C49.2107 35.624 49.8267 35.832 50.1867 36.12C50.5467 36.4 50.7267 36.8 50.7267 37.32C50.7267 37.688 50.6227 38.016 50.4147 38.304C50.2067 38.584 49.9187 38.804 49.5507 38.964C49.1907 39.116 48.7787 39.192 48.3147 39.192C47.7387 39.192 47.2427 39.096 46.8267 38.904C46.4107 38.704 46.0387 38.432 45.7107 38.088Z" fill="#BFBFBF"/>
</svg>
