<svg width="48" height="40" viewBox="0 0 48 40" fill="none" xmlns="http://www.w3.org/2000/svg">
<path d="M24.1267 8.60546C24.0475 8.59754 23.9525 8.59754 23.8654 8.60546C21.9813 8.54212 20.485 6.99837 20.485 5.09837C20.485 3.15879 22.0525 1.58337 24 1.58337C25.9396 1.58337 27.515 3.15879 27.515 5.09837C27.5071 6.99837 26.0108 8.54212 24.1267 8.60546Z" stroke="#BFBFBF" stroke-width="1.5" stroke-linecap="round" stroke-linejoin="round"/>
<path d="M20.1683 11.5266C18.2525 12.8091 18.2525 14.8991 20.1683 16.1737C22.3454 17.6304 25.9158 17.6304 28.0929 16.1737C30.0088 14.8912 30.0088 12.8012 28.0929 11.5266C25.9238 10.0779 22.3533 10.0779 20.1683 11.5266Z" stroke="#BFBFBF" stroke-width="1.5" stroke-linecap="round" stroke-linejoin="round"/>
<path d="M7.732 39H6.772V30.42H9.916C10.452 30.42 10.92 30.52 11.32 30.72C11.72 30.92 12.032 31.2 12.256 31.56C12.48 31.92 12.592 32.344 12.592 32.832C12.592 33.312 12.48 33.732 12.256 34.092C12.032 34.452 11.72 34.736 11.32 34.944C10.92 35.144 10.452 35.244 9.916 35.244H7.612V34.404H9.916C10.444 34.404 10.856 34.264 11.152 33.984C11.456 33.704 11.608 33.32 11.608 32.832C11.608 32.336 11.456 31.952 11.152 31.68C10.856 31.4 10.444 31.26 9.916 31.26H7.732V39ZM17.4467 33V33.888H17.2427C16.8747 33.888 16.5307 33.984 16.2107 34.176C15.8987 34.36 15.6467 34.648 15.4547 35.04C15.2627 35.424 15.1667 35.92 15.1667 36.528V39H14.2427V33.096H15.1547V34.98H14.9987C15.0867 34.492 15.2467 34.104 15.4787 33.816C15.7187 33.528 15.9947 33.32 16.3067 33.192C16.6187 33.064 16.9347 33 17.2547 33H17.4467ZM21.1 39.192C20.532 39.192 20.024 39.056 19.576 38.784C19.128 38.512 18.776 38.14 18.52 37.668C18.272 37.196 18.148 36.656 18.148 36.048C18.148 35.44 18.272 34.9 18.52 34.428C18.776 33.956 19.128 33.584 19.576 33.312C20.024 33.04 20.532 32.904 21.1 32.904C21.676 32.904 22.188 33.04 22.636 33.312C23.084 33.584 23.432 33.956 23.68 34.428C23.936 34.9 24.064 35.44 24.064 36.048C24.064 36.656 23.936 37.196 23.68 37.668C23.432 38.14 23.084 38.512 22.636 38.784C22.188 39.056 21.676 39.192 21.1 39.192ZM21.1 38.388C21.5 38.388 21.848 38.288 22.144 38.088C22.44 37.888 22.672 37.612 22.84 37.26C23.008 36.908 23.092 36.504 23.092 36.048C23.092 35.584 23.008 35.18 22.84 34.836C22.672 34.484 22.44 34.208 22.144 34.008C21.848 33.808 21.5 33.708 21.1 33.708C20.708 33.708 20.364 33.808 20.068 34.008C19.772 34.208 19.54 34.484 19.372 34.836C19.204 35.18 19.12 35.584 19.12 36.048C19.12 36.504 19.204 36.908 19.372 37.26C19.54 37.612 19.772 37.888 20.068 38.088C20.364 38.288 20.708 38.388 21.1 38.388ZM26.9207 39H25.9967V31.8C25.9967 30.84 26.4527 30.36 27.3647 30.36H28.5287V31.128H27.5927C27.3527 31.128 27.1807 31.188 27.0767 31.308C26.9727 31.42 26.9207 31.604 26.9207 31.86V39ZM28.5287 33.888H24.8687V33.096H28.5287V33.888ZM30.6588 39H29.7348V33.096H30.6588V39ZM30.8388 30.864C30.8388 31.056 30.7748 31.216 30.6468 31.344C30.5268 31.464 30.3748 31.524 30.1908 31.524C30.0068 31.524 29.8508 31.464 29.7228 31.344C29.6028 31.216 29.5428 31.056 29.5428 30.864C29.5428 30.672 29.6028 30.516 29.7228 30.396C29.8508 30.268 30.0068 30.204 30.1908 30.204C30.3748 30.204 30.5268 30.268 30.6468 30.396C30.7748 30.516 30.8388 30.672 30.8388 30.864ZM33.6237 39H32.6997V30.36H33.6237V39ZM40.1525 37.308L40.7765 37.908C40.4645 38.34 40.0965 38.664 39.6725 38.88C39.2565 39.088 38.7965 39.192 38.2925 39.192C37.7005 39.192 37.1765 39.056 36.7205 38.784C36.2725 38.512 35.9205 38.14 35.6645 37.668C35.4165 37.188 35.2925 36.648 35.2925 36.048C35.2925 35.448 35.4165 34.912 35.6645 34.44C35.9205 33.96 36.2645 33.584 36.6965 33.312C37.1365 33.04 37.6285 32.904 38.1725 32.904C38.7085 32.904 39.1805 33.036 39.5885 33.3C40.0045 33.564 40.3285 33.932 40.5605 34.404C40.7925 34.868 40.9085 35.404 40.9085 36.012V36.084H39.9725V36C39.9725 35.312 39.8085 34.76 39.4805 34.344C39.1525 33.92 38.7165 33.708 38.1725 33.708C37.8045 33.708 37.4725 33.808 37.1765 34.008C36.8885 34.2 36.6605 34.472 36.4925 34.824C36.3325 35.176 36.2525 35.58 36.2525 36.036C36.2525 36.492 36.3365 36.896 36.5045 37.248C36.6805 37.6 36.9245 37.88 37.2365 38.088C37.5565 38.288 37.9285 38.388 38.3525 38.388C38.7205 38.388 39.0525 38.3 39.3485 38.124C39.6445 37.948 39.9125 37.676 40.1525 37.308ZM40.9085 36.372H36.0245V35.616H40.7285L40.9085 36.012V36.372Z" fill="#BFBFBF"/>
</svg>
