<svg width="71" height="45" viewBox="0 0 71 45" fill="none" xmlns="http://www.w3.org/2000/svg">
<path d="M40.78 8.44L44.5 4.71997L40.78 1" stroke="#BFBFBF" stroke-width="1.5" stroke-linecap="round" stroke-linejoin="round"/>
<path d="M26.5 4.71997H44.5" stroke="#BFBFBF" stroke-width="1.5" stroke-linecap="round" stroke-linejoin="round"/>
<path d="M30.22 11.54L26.5 15.2601L30.22 18.98" stroke="#BFBFBF" stroke-width="1.5" stroke-linecap="round" stroke-linejoin="round"/>
<path d="M44.5 15.26H26.5" stroke="#BFBFBF" stroke-width="1.5" stroke-linecap="round" stroke-linejoin="round"/>
<path d="M4.08 38.98H3.12V31.132H4.08V38.98ZM6.744 31.252H0.456V30.4H6.744V31.252ZM10.4584 32.98V33.868H10.2544C9.88638 33.868 9.54238 33.964 9.22238 34.156C8.91038 34.34 8.65838 34.628 8.46638 35.02C8.27438 35.404 8.17838 35.9 8.17838 36.508V38.98H7.25438V33.076H8.16638V34.96H8.01038C8.09838 34.472 8.25838 34.084 8.49038 33.796C8.73038 33.508 9.00638 33.3 9.31837 33.172C9.63038 33.044 9.94638 32.98 10.2664 32.98H10.4584ZM16.3501 38.98H15.4741V37.828L15.4621 37.492V35.296C15.4621 34.8 15.3101 34.408 15.0061 34.12C14.7101 33.824 14.3021 33.676 13.7821 33.676C13.1021 33.676 12.5261 33.96 12.0541 34.528L11.4541 33.94C12.1261 33.236 12.9221 32.884 13.8421 32.884C14.3461 32.884 14.7861 32.984 15.1621 33.184C15.5381 33.376 15.8301 33.652 16.0381 34.012C16.2461 34.364 16.3501 34.78 16.3501 35.26V38.98ZM13.3861 39.172C12.9701 39.172 12.6021 39.092 12.2821 38.932C11.9621 38.772 11.7101 38.552 11.5261 38.272C11.3501 37.984 11.2621 37.66 11.2621 37.3C11.2621 36.7 11.4901 36.224 11.9461 35.872C12.4101 35.52 13.0301 35.344 13.8061 35.344H15.5701V36.088H13.9141C13.3781 36.088 12.9621 36.192 12.6661 36.4C12.3701 36.6 12.2221 36.888 12.2221 37.264C12.2221 37.608 12.3381 37.884 12.5701 38.092C12.8101 38.3 13.1261 38.404 13.5181 38.404C13.9021 38.404 14.2461 38.324 14.5501 38.164C14.8541 37.996 15.0981 37.768 15.2821 37.48C15.4661 37.184 15.5701 36.848 15.5941 36.472L15.9421 36.676C15.9421 37.156 15.8301 37.584 15.6061 37.96C15.3901 38.336 15.0901 38.632 14.7061 38.848C14.3221 39.064 13.8821 39.172 13.3861 39.172ZM23.4177 38.98H22.4937V35.584C22.4937 34.96 22.3617 34.492 22.0977 34.18C21.8417 33.86 21.4937 33.7 21.0537 33.7C20.7337 33.7 20.4337 33.792 20.1537 33.976C19.8737 34.152 19.6457 34.436 19.4697 34.828C19.2937 35.212 19.2057 35.712 19.2057 36.328V38.98H18.2817V33.076H19.1937V34.876H19.0377C19.1257 34.388 19.2777 34 19.4937 33.712C19.7177 33.416 19.9817 33.204 20.2857 33.076C20.5897 32.948 20.9057 32.884 21.2337 32.884C21.9137 32.884 22.4457 33.108 22.8297 33.556C23.2217 33.996 23.4177 34.636 23.4177 35.476V38.98ZM24.6521 38.068L25.2521 37.432C25.5081 37.728 25.8001 37.964 26.1281 38.14C26.4641 38.308 26.8401 38.392 27.2561 38.392C27.6881 38.392 28.0361 38.292 28.3001 38.092C28.5721 37.892 28.7081 37.632 28.7081 37.312C28.7081 37.048 28.5921 36.84 28.3601 36.688C28.1361 36.528 27.7481 36.408 27.1961 36.328C26.3561 36.192 25.7641 35.996 25.4201 35.74C25.0841 35.484 24.9161 35.128 24.9161 34.672C24.9161 34.312 25.0121 34 25.2041 33.736C25.3961 33.464 25.6641 33.256 26.0081 33.112C26.3521 32.96 26.7481 32.884 27.1961 32.884C27.6921 32.884 28.1361 32.98 28.5281 33.172C28.9201 33.364 29.2681 33.636 29.5721 33.988L28.9721 34.624C28.7481 34.328 28.4881 34.096 28.1921 33.928C27.9041 33.752 27.5721 33.664 27.1961 33.664C26.8041 33.664 26.4841 33.756 26.2361 33.94C25.9881 34.116 25.8641 34.344 25.8641 34.624C25.8641 34.776 25.9081 34.908 25.9961 35.02C26.0841 35.124 26.2321 35.212 26.4401 35.284C26.6481 35.356 26.9281 35.42 27.2801 35.476C28.1521 35.604 28.7681 35.812 29.1281 36.1C29.4881 36.38 29.6681 36.78 29.6681 37.3C29.6681 37.668 29.5641 37.996 29.3561 38.284C29.1481 38.564 28.8601 38.784 28.4921 38.944C28.1321 39.096 27.7201 39.172 27.2561 39.172C26.6801 39.172 26.1841 39.076 25.7681 38.884C25.3521 38.684 24.9801 38.412 24.6521 38.068ZM35.8384 38.98H34.9624V37.828L34.9504 37.492V35.296C34.9504 34.8 34.7984 34.408 34.4944 34.12C34.1984 33.824 33.7904 33.676 33.2704 33.676C32.5904 33.676 32.0144 33.96 31.5424 34.528L30.9424 33.94C31.6144 33.236 32.4104 32.884 33.3304 32.884C33.8344 32.884 34.2744 32.984 34.6504 33.184C35.0264 33.376 35.3184 33.652 35.5264 34.012C35.7344 34.364 35.8384 34.78 35.8384 35.26V38.98ZM32.8744 39.172C32.4584 39.172 32.0904 39.092 31.7704 38.932C31.4504 38.772 31.1984 38.552 31.0144 38.272C30.8384 37.984 30.7504 37.66 30.7504 37.3C30.7504 36.7 30.9784 36.224 31.4344 35.872C31.8984 35.52 32.5184 35.344 33.2944 35.344H35.0584V36.088H33.4024C32.8664 36.088 32.4504 36.192 32.1544 36.4C31.8584 36.6 31.7104 36.888 31.7104 37.264C31.7104 37.608 31.8264 37.884 32.0584 38.092C32.2984 38.3 32.6144 38.404 33.0064 38.404C33.3904 38.404 33.7344 38.324 34.0384 38.164C34.3424 37.996 34.5864 37.768 34.7704 37.48C34.9544 37.184 35.0584 36.848 35.0824 36.472L35.4304 36.676C35.4304 37.156 35.3184 37.584 35.0944 37.96C34.8784 38.336 34.5784 38.632 34.1944 38.848C33.8104 39.064 33.3704 39.172 32.8744 39.172ZM42.054 37.408L42.702 38.02C42.43 38.388 42.094 38.672 41.694 38.872C41.294 39.072 40.846 39.172 40.35 39.172C39.774 39.172 39.262 39.04 38.814 38.776C38.374 38.504 38.026 38.132 37.77 37.66C37.522 37.188 37.398 36.644 37.398 36.028C37.398 35.412 37.526 34.868 37.782 34.396C38.038 33.924 38.39 33.556 38.838 33.292C39.286 33.02 39.798 32.884 40.374 32.884C41.374 32.884 42.154 33.268 42.714 34.036L42.054 34.648C41.886 34.344 41.654 34.108 41.358 33.94C41.062 33.772 40.726 33.688 40.35 33.688C39.766 33.688 39.29 33.9 38.922 34.324C38.554 34.748 38.37 35.316 38.37 36.028C38.37 36.732 38.554 37.3 38.922 37.732C39.298 38.156 39.786 38.368 40.386 38.368C40.746 38.368 41.066 38.288 41.346 38.128C41.626 37.96 41.862 37.72 42.054 37.408ZM47.2756 38.98H45.9556C45.5396 38.98 45.2236 38.868 45.0076 38.644C44.7916 38.412 44.6836 38.084 44.6836 37.66V31.348H45.6076V37.576C45.6076 37.768 45.6556 37.92 45.7516 38.032C45.8476 38.136 45.9916 38.188 46.1836 38.188H47.2756V38.98ZM47.1916 33.868H43.5556V33.076H47.1916V33.868ZM49.6745 38.98H48.7505V33.076H49.6745V38.98ZM49.8545 30.844C49.8545 31.036 49.7905 31.196 49.6625 31.324C49.5425 31.444 49.3905 31.504 49.2065 31.504C49.0225 31.504 48.8665 31.444 48.7385 31.324C48.6185 31.196 48.5585 31.036 48.5585 30.844C48.5585 30.652 48.6185 30.496 48.7385 30.376C48.8665 30.248 49.0225 30.184 49.2065 30.184C49.3905 30.184 49.5425 30.248 49.6625 30.376C49.7905 30.496 49.8545 30.652 49.8545 30.844ZM54.2953 39.172C53.7273 39.172 53.2193 39.036 52.7713 38.764C52.3233 38.492 51.9713 38.12 51.7153 37.648C51.4673 37.176 51.3433 36.636 51.3433 36.028C51.3433 35.42 51.4673 34.88 51.7153 34.408C51.9713 33.936 52.3233 33.564 52.7713 33.292C53.2193 33.02 53.7273 32.884 54.2953 32.884C54.8713 32.884 55.3833 33.02 55.8313 33.292C56.2793 33.564 56.6273 33.936 56.8753 34.408C57.1313 34.88 57.2593 35.42 57.2593 36.028C57.2593 36.636 57.1313 37.176 56.8753 37.648C56.6273 38.12 56.2793 38.492 55.8313 38.764C55.3833 39.036 54.8713 39.172 54.2953 39.172ZM54.2953 38.368C54.6953 38.368 55.0433 38.268 55.3393 38.068C55.6353 37.868 55.8673 37.592 56.0353 37.24C56.2033 36.888 56.2873 36.484 56.2873 36.028C56.2873 35.564 56.2033 35.16 56.0353 34.816C55.8673 34.464 55.6353 34.188 55.3393 33.988C55.0433 33.788 54.6953 33.688 54.2953 33.688C53.9033 33.688 53.5593 33.788 53.2633 33.988C52.9673 34.188 52.7353 34.464 52.5673 34.816C52.3993 35.16 52.3153 35.564 52.3153 36.028C52.3153 36.484 52.3993 36.888 52.5673 37.24C52.7353 37.592 52.9673 37.868 53.2633 38.068C53.5593 38.268 53.9033 38.368 54.2953 38.368ZM64.0583 38.98H63.1343V35.584C63.1343 34.96 63.0023 34.492 62.7383 34.18C62.4823 33.86 62.1343 33.7 61.6943 33.7C61.3743 33.7 61.0743 33.792 60.7943 33.976C60.5143 34.152 60.2863 34.436 60.1103 34.828C59.9343 35.212 59.8463 35.712 59.8463 36.328V38.98H58.9223V33.076H59.8343V34.876H59.6783C59.7663 34.388 59.9183 34 60.1343 33.712C60.3583 33.416 60.6223 33.204 60.9263 33.076C61.2303 32.948 61.5463 32.884 61.8743 32.884C62.5543 32.884 63.0863 33.108 63.4703 33.556C63.8623 33.996 64.0583 34.636 64.0583 35.476V38.98ZM65.2928 38.068L65.8928 37.432C66.1488 37.728 66.4408 37.964 66.7688 38.14C67.1048 38.308 67.4808 38.392 67.8968 38.392C68.3288 38.392 68.6768 38.292 68.9408 38.092C69.2128 37.892 69.3488 37.632 69.3488 37.312C69.3488 37.048 69.2328 36.84 69.0008 36.688C68.7768 36.528 68.3888 36.408 67.8368 36.328C66.9968 36.192 66.4048 35.996 66.0608 35.74C65.7248 35.484 65.5568 35.128 65.5568 34.672C65.5568 34.312 65.6528 34 65.8448 33.736C66.0368 33.464 66.3048 33.256 66.6488 33.112C66.9928 32.96 67.3888 32.884 67.8368 32.884C68.3328 32.884 68.7768 32.98 69.1688 33.172C69.5608 33.364 69.9088 33.636 70.2128 33.988L69.6128 34.624C69.3888 34.328 69.1288 34.096 68.8328 33.928C68.5448 33.752 68.2128 33.664 67.8368 33.664C67.4448 33.664 67.1248 33.756 66.8768 33.94C66.6288 34.116 66.5048 34.344 66.5048 34.624C66.5048 34.776 66.5488 34.908 66.6368 35.02C66.7248 35.124 66.8728 35.212 67.0808 35.284C67.2888 35.356 67.5688 35.42 67.9208 35.476C68.7928 35.604 69.4088 35.812 69.7688 36.1C70.1288 36.38 70.3088 36.78 70.3088 37.3C70.3088 37.668 70.2048 37.996 69.9968 38.284C69.7888 38.564 69.5008 38.784 69.1328 38.944C68.7728 39.096 68.3608 39.172 67.8968 39.172C67.3208 39.172 66.8248 39.076 66.4088 38.884C65.9928 38.684 65.6208 38.412 65.2928 38.068Z" fill="#BFBFBF"/>
</svg>
